HIERARCHY
ROOT Hips
{
	OFFSET -3.958830 18.904000 13.208200
	CHANNELS 6 Xposition Yposition Zposition Zrotation Yrotation Xrotation 
	JOINT LHipJoint
	{
		OFFSET 0.000000 0.000000 0.000000
		CHANNELS 3 Zrotation Yrotation Xrotation
		JOINT LeftUpLeg
		{
			OFFSET 1.800000 -1.400000 0.085000
			CHANNELS 3 Zrotation Yrotation Xrotation
			JOINT LeftLeg
			{
				OFFSET 2.215000 -6.000000 0.000000
				CHANNELS 3 Zrotation Yrotation Xrotation
				JOINT LeftFoot
				{
					OFFSET 2.500000 -6.900000 0.000000
					CHANNELS 3 Zrotation Yrotation Xrotation
					JOINT LeftToeBase
					{
						OFFSET 0.200000 -0.500000 1.950000
						CHANNELS 3 Zrotation Yrotation Xrotation
						End Site
						{
							OFFSET 0.000000 0.000000 0.000000
						}
					}
				}
			}
		}
	}
	JOINT RHipJoint
	{
		OFFSET 0.000000 0.000000 0.000000
		CHANNELS 3 Zrotation Yrotation Xrotation
		JOINT RightUpLeg
		{
			OFFSET -1.800000 -1.400000 0.085000
			CHANNELS 3 Zrotation Yrotation Xrotation
			JOINT RightLeg
			{
				OFFSET -2.215000 -6.000000 0.000000
				CHANNELS 3 Zrotation Yrotation Xrotation
				JOINT RightFoot
				{
					OFFSET -2.500000 -6.900000 0.000000
					CHANNELS 3 Zrotation Yrotation Xrotation
					JOINT RightToeBase
					{
						OFFSET -0.200000 -0.500000 1.950000
						CHANNELS 3 Zrotation Yrotation Xrotation
						End Site
						{
							OFFSET 0.000000 0.000000 0.000000
						}
					}
				}
			}
		}
	}
	JOINT LowerBack
	{
		OFFSET 0.000000 0.000000 0.000000
		CHANNELS 3 Zrotation Yrotation Xrotation
		JOINT Spine
		{
			OFFSET -0.087000 1.940000 -0.288900
			CHANNELS 3 Zrotation Yrotation Xrotation
			JOINT Spine1
			{
				OFFSET 0.000000 1.950000 0.060000
				CHANNELS 3 Zrotation Yrotation Xrotation
				JOINT Neck
				{
					OFFSET 0.000000 0.000000 0.000000
					CHANNELS 3 Zrotation Yrotation Xrotation
					JOINT Neck1
					{
						OFFSET 0.000000 1.600000 0.340000
						CHANNELS 3 Zrotation Yrotation Xrotation
						JOINT Head
						{
							OFFSET 0.000000 1.667000 -0.240000
							CHANNELS 3 Zrotation Yrotation Xrotation
							End Site
							{
								OFFSET 0.000000 0.000000 0.000000
							}
						}
					}
				}
				JOINT LeftShoulder
				{
					OFFSET 0.000000 0.000000 0.000000
					CHANNELS 3 Zrotation Yrotation Xrotation
					JOINT LeftArm
					{
						OFFSET 2.700000 1.550000 -0.730000
						CHANNELS 3 Zrotation Yrotation Xrotation
						JOINT LeftForeArm
						{
							OFFSET 5.450000 0.000000 0.000000
							CHANNELS 3 Zrotation Yrotation Xrotation
							JOINT LeftHand
							{
								OFFSET 3.450000 0.000000 0.000000
								CHANNELS 3 Zrotation Yrotation Xrotation
								JOINT LeftHandIndex1
								{
									OFFSET 0.750000 0.000000 0.000000
									CHANNELS 3 Zrotation Yrotation Xrotation
									End Site
									{
										OFFSET 0.000000 0.000000 0.000000
									}
								}
							}
						}
					}
				}
				JOINT RightShoulder
				{
					OFFSET 0.000000 0.000000 0.000000
					CHANNELS 3 Zrotation Yrotation Xrotation
					JOINT RightArm
					{
						OFFSET -2.700000 1.550000 -0.730000
						CHANNELS 3 Zrotation Yrotation Xrotation
						JOINT RightForeArm
						{
							OFFSET -5.450000 0.000000 0.000000
							CHANNELS 3 Zrotation Yrotation Xrotation
							JOINT RightHand
							{
								OFFSET -3.450000 0.000000 0.000000
								CHANNELS 3 Zrotation Yrotation Xrotation
								JOINT RightHandIndex1
								{
									OFFSET -0.750000 0.000000 0.000000
									CHANNELS 3 Zrotation Yrotation Xrotation
									End Site
									{
										OFFSET 0.000000 0.000000 0.000000
									}
								}
							}
						}
					}
				}
			}
		}
	}
}
MOTION
Frames: 7
Frame Time: 0.016667
-0.188460 16.771760 -2.374880 -3.098618 -9.532168 -2.574835 -14.540571 13.367210 3.515726 6.550977 -2.717658 -19.249871 -11.014366 7.822286 20.671669 0.559031 3.988857 3.010076 0.580490 0.424400 0.664100 18.542257 -11.739201 3.100428 -0.220329 -0.047966 -6.837168 4.087654 -5.171765 17.344263 -0.579254 -3.429657 3.175159 -0.135610 -0.599380 0.247190 -4.612808 -0.229791 -8.117655 31.872854 -2.857244 16.035115 -24.151521 5.227184 -7.677248 13.824988 2.134114 -13.776812 4.605160 -13.584758 59.992190 -15.785430 -8.631580 -2.190910 -26.548495 3.385621 0.365513 -47.777994 17.277227 -12.884185 -6.430778 -19.438835 -0.316932 -2.808600 3.253092 0.315090 -0.434820 0.619480 0.228820 -4.132765 4.379673 14.261103 21.501353 -19.471040 -10.820826 -66.023294 51.300261 -26.976371 2.697774 -1.544004 0.441390 -0.318660 -0.605910 0.081270 
-0.208320 16.757560 -2.380000 -3.298221 -9.536209 -2.396231 -14.604267 13.427810 3.602850 7.172404 -2.812436 -20.519123 -11.217575 8.262064 22.129347 0.587377 4.223765 2.907209 0.568260 0.405640 0.668050 18.470110 -11.637972 3.110738 0.036121 0.086796 -7.014388 4.559019 -5.282870 17.658164 -0.579127 -3.423456 3.174047 -0.152360 -0.613950 0.252110 -4.416650 -0.476882 -8.225458 30.701263 -2.477488 16.909804 -22.431689 5.764137 -9.679679 13.697034 2.419989 -13.669460 5.888830 -14.324698 59.998127 -16.804050 -8.153570 -2.399520 -26.960676 4.797377 -0.115358 -47.908042 18.082324 -13.048198 -7.076980 -19.924209 -0.205228 -2.806156 3.244218 0.326710 -0.441570 0.627800 0.216410 -3.584839 3.235837 14.228415 23.641359 -19.679089 -11.059027 -73.660616 51.727777 -32.013996 2.652424 -1.399240 0.442410 -0.327130 -0.596770 0.072200 
-0.233190 16.742140 -2.383130 -3.406010 -9.415278 -2.158723 -14.679083 13.472450 3.703861 7.727427 -2.938108 -21.905182 -11.374904 8.720031 23.655749 0.617485 4.474174 2.798495 0.553430 0.379200 0.673640 18.391164 -11.532408 3.114830 0.233173 0.216879 -7.212857 5.069044 -5.401145 17.910465 -0.577804 -3.415054 3.173299 -0.174540 -0.631200 0.257260 -4.199016 -0.719601 -8.341774 29.132479 -2.051080 17.643201 -20.453438 6.355377 -11.690719 13.426964 2.745274 -13.667090 7.314347 -15.096355 60.090789 -17.827260 -7.587620 -2.436260 -27.097623 6.372434 -0.595571 -48.298991 18.871529 -13.241835 -7.761095 -20.435589 -0.077459 -2.807824 3.227186 0.343050 -0.449960 0.635520 0.200040 -3.008418 1.901984 14.274634 26.312716 -19.975565 -11.192888 -82.904247 51.915429 -38.925390 2.615504 -1.243220 0.442510 -0.339890 -0.586170 0.059420 
-0.260280 16.726480 -2.385590 -3.515381 -9.276063 -1.817009 -14.753379 13.476107 3.814421 8.307803 -3.070701 -23.399645 -11.578631 9.203679 25.117263 0.650724 4.737270 2.685548 0.532130 0.342730 0.676480 18.320247 -11.432604 3.114448 0.441716 0.368661 -7.519178 5.627908 -5.537153 18.192812 -0.572286 -3.413159 3.169042 -0.202170 -0.648000 0.262560 -3.996479 -0.896339 -8.450693 27.536238 -1.619932 18.141704 -18.467139 6.963002 -13.508019 13.014693 3.103794 -13.688252 8.773932 -15.877584 59.848678 -18.886420 -6.915800 -2.234430 -26.978455 8.065245 -1.062628 -48.826587 19.606045 -13.460967 -8.632928 -21.043456 0.101954 -2.813609 3.212886 0.356660 -0.456170 0.637840 0.179820 -2.419229 0.360345 14.379691 29.375540 -20.253444 -11.104130 -93.051975 51.659910 -47.868034 2.623584 -1.132953 0.441620 -0.358820 -0.572150 0.044580 
-0.287910 16.709360 -2.386920 -3.673548 -9.142899 -1.462854 -14.826379 13.458771 3.922309 8.928379 -3.178297 -24.868820 -11.724599 9.677768 26.511758 0.679889 5.009042 2.574924 0.507970 0.299230 0.675970 18.257444 -11.331618 3.112992 0.680924 0.513023 -7.801281 6.229690 -5.689095 18.430106 -0.566791 -3.421238 3.164568 -0.231070 -0.657070 0.267710 -3.809615 -1.046299 -8.547466 26.029685 -1.214968 18.508617 -16.476757 7.555060 -15.094284 12.500279 3.394916 -13.670175 9.961710 -16.469422 59.504536 -19.812350 -6.245440 -1.939470 -26.747411 9.769141 -1.534283 -49.492547 20.257316 -13.634736 -9.467338 -21.343137 0.267290 -2.828905 3.186491 0.372210 -0.458430 0.635150 0.162090 -1.722525 -1.270322 14.404829 32.335746 -20.595183 -10.825563 -103.035204 51.066292 -58.437674 2.687484 -1.125472 0.435090 -0.374320 -0.555920 0.028830 
-0.315350 16.692070 -2.387000 -3.859382 -9.017861 -1.148479 -14.895648 13.423081 4.017943 9.563390 -3.240410 -26.196174 -11.815116 10.124581 27.787052 0.707614 5.273817 2.470355 0.484620 0.259560 0.674470 18.203931 -11.238747 3.109690 0.919085 0.635661 -8.017118 6.831543 -5.851138 18.634604 -0.563165 -3.445128 3.155801 -0.256050 -0.660670 0.274980 -3.642444 -1.153238 -8.626489 24.595531 -0.769282 18.733140 -14.478502 8.115486 -16.374801 11.960112 3.735346 -13.567987 11.091673 -17.015936 58.941522 -20.752750 -5.555400 -1.551920 -26.639874 11.278616 -1.965690 -50.137250 20.818138 -13.744435 -10.132678 -21.269713 0.384794 -2.853463 3.155483 0.381740 -0.454040 0.630820 0.147340 -0.812298 -2.910815 14.248589 34.977262 -21.099728 -10.609938 -112.133983 50.527572 -69.975023 2.780426 -1.230398 0.428670 -0.388060 -0.540980 0.015740 
-0.341140 16.674830 -2.387200 -4.131128 -8.881254 -0.853110 -14.962386 13.387379 4.105244 10.216019 -3.269330 -27.435028 -11.792023 10.512587 28.955825 0.729885 5.521931 2.374566 0.455910 0.216130 0.664890 18.156384 -11.140311 3.108300 1.205310 0.747630 -8.198928 7.480805 -6.039740 18.837864 -0.558232 -3.480935 3.148025 -0.281950 -0.655820 0.279890 -3.489235 -1.271718 -8.697911 23.383722 -0.412348 18.900791 -12.555183 8.612386 -17.422354 11.421698 3.962815 -13.420351 11.820021 -17.279452 58.348119 -21.552980 -4.868850 -1.053430 -26.450993 12.746948 -2.362028 -50.945618 21.350332 -13.883873 -10.748744 -21.339716 0.506334 -2.886103 3.121131 0.387170 -0.443910 0.620000 0.133860 0.048752 -4.459014 13.958352 37.328611 -21.588841 -10.584772 -120.145254 50.441855 -81.931711 2.859289 -1.390323 0.419370 -0.396900 -0.520860 0.004040 
